<svg width="24" height="24" viewBox="0 0 24 24" fill="none" xmlns="http://www.w3.org/2000/svg">
<path d="M8 12C8 10.9391 8.42143 9.92172 9.17157 9.17157C9.92172 8.42143 10.9391 8 12 8C13.0609 8 14.0783 8.42143 14.8284 9.17157C15.5786 9.92172 16 10.9391 16 12C16 13.0609 15.5786 14.0783 14.8284 14.8284C14.0783 15.5786 13.0609 16 12 16C10.9391 16 9.92172 15.5786 9.17157 14.8284C8.42143 14.0783 8 13.0609 8 12Z" fill="black"/>
<path d="M12.05 1C13.877 1 15.316 1 16.47 1.105C17.648 1.211 18.626 1.433 19.5 1.938C20.564 2.55235 21.4476 3.43595 22.062 4.5C22.567 5.374 22.789 6.352 22.895 7.53C23 8.684 23 10.123 23 11.95V12.05C23 13.877 23 15.316 22.895 16.47C22.789 17.648 22.567 18.626 22.062 19.5C21.4476 20.564 20.564 21.4476 19.5 22.062C18.626 22.567 17.648 22.789 16.47 22.895C15.316 23 13.877 23 12.05 23H11.95C10.123 23 8.684 23 7.53 22.895C6.352 22.789 5.374 22.567 4.5 22.062C3.43595 21.4476 2.55235 20.564 1.938 19.5C1.433 18.626 1.211 17.648 1.105 16.47C1 15.316 1 13.877 1 12.05V11.95C1 10.123 1 8.684 1.105 7.53C1.211 6.352 1.433 5.374 1.938 4.5C2.55235 3.43595 3.43595 2.55235 4.5 1.938C5.374 1.433 6.352 1.211 7.53 1.105C8.684 1 10.123 1 11.95 1H12.05ZM18.25 4.75C17.9848 4.75 17.7304 4.85536 17.5429 5.04289C17.3554 5.23043 17.25 5.48478 17.25 5.75V5.754C17.25 6.01922 17.3554 6.27357 17.5429 6.46111C17.7304 6.64864 17.9848 6.754 18.25 6.754H18.254C18.5192 6.754 18.7736 6.64864 18.9611 6.46111C19.1486 6.27357 19.254 6.01922 19.254 5.754V5.75C19.254 5.48478 19.1486 5.23043 18.9611 5.04289C18.7736 4.85536 18.5192 4.75 18.254 4.75H18.25ZM12 6C10.4087 6 8.88258 6.63214 7.75736 7.75736C6.63214 8.88258 6 10.4087 6 12C6 13.5913 6.63214 15.1174 7.75736 16.2426C8.88258 17.3679 10.4087 18 12 18C13.5913 18 15.1174 17.3679 16.2426 16.2426C17.3679 15.1174 18 13.5913 18 12C18 10.4087 17.3679 8.88258 16.2426 7.75736C15.1174 6.63214 13.5913 6 12 6Z" fill="black"/>
</svg>
