<svg width="29" height="27" viewBox="0 0 29 27" fill="none" xmlns="http://www.w3.org/2000/svg">
<path d="M18.5029 12.6667V12.6812M19.9612 1V6.54604C21.766 7.59049 23.1401 9.24321 23.8375 11.2083H25.7931C26.1799 11.2083 26.5508 11.362 26.8243 11.6355C27.0978 11.909 27.2514 12.2799 27.2514 12.6667V15.5833C27.2514 15.9701 27.0978 16.341 26.8243 16.6145C26.5508 16.888 26.1799 17.0417 25.7931 17.0417H23.836C23.3458 18.4279 22.5143 19.6682 21.4181 20.6481V23.6042C21.4181 24.1843 21.1876 24.7407 20.7774 25.151C20.3671 25.5612 19.8107 25.7917 19.2306 25.7917C18.6504 25.7917 18.094 25.5612 17.6838 25.151C17.2735 24.7407 17.0431 24.1843 17.0431 23.6042V22.754C16.5612 22.835 16.0734 22.8754 15.5847 22.875H9.75141C9.26277 22.8754 8.77496 22.835 8.29308 22.754V23.6042C8.29308 24.1843 8.06261 24.7407 7.65237 25.151C7.24214 25.5612 6.68574 25.7917 6.10558 25.7917C5.52542 25.7917 4.96902 25.5612 4.55878 25.151C4.14855 24.7407 3.91808 24.1843 3.91808 23.6042V20.6481C2.59677 19.4668 1.66536 17.9121 1.24711 16.1898C0.828874 14.4675 0.943531 12.6588 1.57591 11.003C2.20829 9.34731 3.32856 7.92266 4.78846 6.91767C6.24836 5.91267 7.97904 5.37471 9.75141 5.375H13.3972L19.9612 1Z" stroke="#CC6F79" stroke-width="2" stroke-linecap="round" stroke-linejoin="round"/>
</svg>
