<svg width="27" height="30" viewBox="0 0 27 30" fill="none" xmlns="http://www.w3.org/2000/svg">
<path d="M25.5646 7.51042L13.8979 0.21875C13.4312 -0.0729167 12.8188 -0.0729167 12.3521 0.21875L0.685417 7.51042C0.2625 7.77292 0 8.23958 0 8.75V20.4167C0 20.9125 0.2625 21.3937 0.685417 21.6562L12.3521 28.9479C12.5844 29.0912 12.852 29.167 13.125 29.167C13.398 29.167 13.6656 29.0912 13.8979 28.9479L25.5646 21.6562C25.9875 21.3937 26.25 20.9271 26.25 20.4167V8.75C26.25 8.25417 25.9875 7.77292 25.5646 7.51042ZM13.125 3.17917L22.0354 8.75L18.5646 10.9229C17.3833 9.17292 15.3854 8.02083 13.125 8.02083C10.8646 8.02083 8.86667 9.17292 7.68542 10.9229L4.21458 8.75L13.125 3.17917ZM13.125 18.2292C12.1581 18.2292 11.2307 17.8451 10.547 17.1613C9.86328 16.4776 9.47917 15.5503 9.47917 14.5833C9.47917 13.6164 9.86328 12.6891 10.547 12.0053C11.2307 11.3216 12.1581 10.9375 13.125 10.9375C14.0919 10.9375 15.0193 11.3216 15.703 12.0053C16.3867 12.6891 16.7708 13.6164 16.7708 14.5833C16.7708 15.5503 16.3867 16.4776 15.703 17.1613C15.0193 17.8451 14.0919 18.2292 13.125 18.2292ZM2.91667 11.375L6.65 13.7083C6.60625 14 6.5625 14.2771 6.5625 14.5833C6.5625 17.7042 8.75 20.3 11.6667 20.9708V25.0833L2.91667 19.6146V11.3896V11.375ZM14.5833 25.0687V20.9562C17.5 20.2854 19.6875 17.6896 19.6875 14.5687C19.6875 14.2771 19.6438 13.9854 19.6 13.6937L23.3333 11.3604V19.5854L14.5833 25.0542V25.0687Z" fill="#CC6F79"/>
</svg>
