<svg width="30" height="28" viewBox="0 0 30 28" fill="none" xmlns="http://www.w3.org/2000/svg">
<path d="M2.91667 27.7083C2.11458 27.7083 1.42819 27.423 0.8575 26.8523C0.286806 26.2816 0.000972222 25.5947 0 24.7917V8.75C0 7.94792 0.285833 7.26153 0.8575 6.69083C1.42917 6.12014 2.11556 5.83431 2.91667 5.83333H8.75V2.91667C8.75 2.11458 9.03583 1.42819 9.6075 0.8575C10.1792 0.286806 10.8656 0.000972222 11.6667 0H17.5C18.3021 0 18.989 0.285833 19.5606 0.8575C20.1323 1.42917 20.4176 2.11556 20.4167 2.91667V5.83333H26.25C27.0521 5.83333 27.739 6.11917 28.3106 6.69083C28.8823 7.2625 29.1676 7.94889 29.1667 8.75V24.7917C29.1667 25.5938 28.8813 26.2806 28.3106 26.8523C27.7399 27.424 27.0531 27.7093 26.25 27.7083H2.91667ZM2.91667 24.7917H26.25V8.75H2.91667V24.7917ZM11.6667 5.83333H17.5V2.91667H11.6667V5.83333Z" fill="#CC6F79"/>
</svg>
