<svg width="19" height="19" viewBox="0 0 19 19" fill="none" xmlns="http://www.w3.org/2000/svg">
<path d="M17.243 0H1.50703C0.675 0 0 0.675 0 1.50703V17.243C0 18.075 0.675 18.75 1.50703 18.75H17.243C18.075 18.75 18.75 18.075 18.75 17.243V1.50703C18.75 0.675 18.075 0 17.243 0ZM17.243 17.25C6.74766 17.2477 1.5 17.2453 1.5 17.243C1.50234 6.74766 1.50469 1.5 1.50703 1.5C12.0023 1.50234 17.25 1.50469 17.25 1.50703C17.2477 12.0023 17.2453 17.25 17.243 17.25ZM2.77969 7.02891H5.56172V15.9773H2.77969V7.02891ZM4.17188 5.80547C5.06016 5.80547 5.78437 5.08359 5.78437 4.19297C5.78437 3.98121 5.74267 3.77153 5.66163 3.57589C5.5806 3.38025 5.46182 3.20249 5.31208 3.05276C5.16235 2.90302 4.98459 2.78425 4.78895 2.70321C4.59331 2.62218 4.38363 2.58047 4.17188 2.58047C3.96012 2.58047 3.75044 2.62218 3.5548 2.70321C3.35916 2.78425 3.1814 2.90302 3.03167 3.05276C2.88193 3.20249 2.76315 3.38025 2.68212 3.57589C2.60108 3.77153 2.55937 3.98121 2.55937 4.19297C2.55703 5.08359 3.27891 5.80547 4.17188 5.80547ZM10.0852 11.55C10.0852 10.3828 10.3078 9.25312 11.7539 9.25312C13.1789 9.25312 13.2 10.5867 13.2 11.625V15.9773H15.9797V11.0695C15.9797 8.66016 15.4594 6.80625 12.6445 6.80625C11.2922 6.80625 10.3852 7.54922 10.0125 8.25234H9.975V7.02891H7.30547V15.9773H10.0852V11.55Z" fill="#FF4081"/>
</svg>
