<svg width="34" height="32" viewBox="0 0 34 32" fill="none" xmlns="http://www.w3.org/2000/svg">
<path d="M18.2688 1.25391C18.083 0.877512 17.7955 0.560606 17.439 0.339018C17.0825 0.117431 16.6711 0 16.2513 0C15.8315 0 15.4201 0.117431 15.0636 0.339018C14.7071 0.560606 14.4196 0.877512 14.2338 1.25391L10.4313 8.95891L1.92881 10.1964C1.51315 10.2564 1.12257 10.4314 0.801247 10.7019C0.479929 10.9723 0.240703 11.3272 0.110635 11.7265C-0.0194333 12.1258 -0.0351511 12.5536 0.0652596 12.9613C0.16567 13.3691 0.378201 13.7406 0.678807 14.0339L6.83381 20.0314L5.38131 28.4989C5.31015 28.9128 5.35625 29.3383 5.51439 29.7274C5.67253 30.1164 5.9364 30.4535 6.27614 30.7003C6.61587 30.9472 7.01792 31.0941 7.43679 31.1243C7.85566 31.1545 8.27464 31.0669 8.64631 30.8714L16.2488 26.8714L17.4538 27.5064C17.0224 27.1084 16.6904 26.6147 16.4846 26.065C16.2787 25.5153 16.2048 24.9249 16.2688 24.3414C15.8972 24.3378 15.5304 24.4262 15.2013 24.5989L7.92631 28.4239L9.31631 20.3239C9.3784 19.9644 9.35213 19.5952 9.23976 19.248C9.1274 18.9009 8.93231 18.5863 8.67131 18.3314L2.78881 12.5964L10.9213 11.4139C11.2819 11.3613 11.6244 11.2219 11.9192 11.0076C12.214 10.7933 12.4524 10.5107 12.6138 10.1839L16.2513 2.81641L18.0838 6.52641C18.6438 6.19141 19.2988 6.00141 19.9988 6.00141H20.6113L18.2688 1.25391ZM19.9988 8.50141C19.6673 8.50141 19.3493 8.63311 19.1149 8.86753C18.8805 9.10195 18.7488 9.41989 18.7488 9.75141C18.7488 10.0829 18.8805 10.4009 19.1149 10.6353C19.3493 10.8697 19.6673 11.0014 19.9988 11.0014H32.4988C32.8303 11.0014 33.1483 10.8697 33.3827 10.6353C33.6171 10.4009 33.7488 10.0829 33.7488 9.75141C33.7488 9.41989 33.6171 9.10195 33.3827 8.86753C33.1483 8.63311 32.8303 8.50141 32.4988 8.50141H19.9988ZM19.9988 16.0014C19.6673 16.0014 19.3493 16.1331 19.1149 16.3675C18.8805 16.6019 18.7488 16.9199 18.7488 17.2514C18.7488 17.5829 18.8805 17.9009 19.1149 18.1353C19.3493 18.3697 19.6673 18.5014 19.9988 18.5014H32.4988C32.8303 18.5014 33.1483 18.3697 33.3827 18.1353C33.6171 17.9009 33.7488 17.5829 33.7488 17.2514C33.7488 16.9199 33.6171 16.6019 33.3827 16.3675C33.1483 16.1331 32.8303 16.0014 32.4988 16.0014H19.9988ZM19.9988 23.5014C19.6673 23.5014 19.3493 23.6331 19.1149 23.8675C18.8805 24.1019 18.7488 24.4199 18.7488 24.7514C18.7488 25.0829 18.8805 25.4009 19.1149 25.6353C19.3493 25.8697 19.6673 26.0014 19.9988 26.0014H32.4988C32.8303 26.0014 33.1483 25.8697 33.3827 25.6353C33.6171 25.4009 33.7488 25.0829 33.7488 24.7514C33.7488 24.4199 33.6171 24.1019 33.3827 23.8675C33.1483 23.6331 32.8303 23.5014 32.4988 23.5014H19.9988Z" fill="#FFB6C1"/>
</svg>
