<svg width="32" height="32" viewBox="0 0 32 32" fill="none" xmlns="http://www.w3.org/2000/svg">
<path d="M8.5 23.5V14.125M16 23.5V8.5M23.5 23.5V19.75M27.25 1H4.75C3.75544 1 2.80161 1.39509 2.09835 2.09835C1.39509 2.80161 1 3.75544 1 4.75V27.25C1 28.2446 1.39509 29.1984 2.09835 29.9016C2.80161 30.6049 3.75544 31 4.75 31H27.25C28.2446 31 29.1984 30.6049 29.9016 29.9016C30.6049 29.1984 31 28.2446 31 27.25V4.75C31 3.75544 30.6049 2.80161 29.9016 2.09835C29.1984 1.39509 28.2446 1 27.25 1Z" stroke="#CC6F79" stroke-width="2" stroke-linecap="round" stroke-linejoin="round"/>
</svg>
