<svg width="39" height="34" viewBox="0 0 39 34" fill="none" xmlns="http://www.w3.org/2000/svg">
<path d="M28.6562 16.0195H35.4662C35.7857 16.0197 36.0999 16.1015 36.3789 16.2572C36.6579 16.4128 36.8924 16.6372 37.0604 16.909C37.2283 17.1808 37.324 17.491 37.3383 17.8102C37.3527 18.1293 37.2853 18.4469 37.1425 18.7327L33.3288 26.362C33.1841 26.6511 32.9672 26.8979 32.6991 27.0785C32.431 27.259 32.1207 27.3672 31.7985 27.3925C31.4762 27.4178 31.1529 27.3593 30.8599 27.2228C30.5669 27.0862 30.3142 26.8763 30.1263 26.6133L26.1437 21.0445M1 29.1445H8.05C8.74887 29.1494 9.43519 28.9589 10.0315 28.5944C10.6279 28.23 11.1105 27.7062 11.425 27.082L14.125 21.6445M1 32.8945V25.3945M10.375 10.3945H10.3938M29.3238 10.4939C29.7681 10.7164 30.106 11.1062 30.2632 11.5776C30.4204 12.0491 30.3839 12.5637 30.1619 13.0083L24.3381 24.6539C24.228 24.8742 24.0755 25.0706 23.8894 25.232C23.7033 25.3933 23.4873 25.5164 23.2536 25.5942C23.02 25.6721 22.7732 25.7031 22.5276 25.6856C22.2819 25.668 22.0421 25.6023 21.8219 25.492L4.01875 16.582C2.72562 15.9307 1.74316 14.7936 1.28635 13.4197C0.829536 12.0457 0.93557 10.5467 1.58125 9.25078L4.16875 4.01953C4.49125 3.37682 4.9372 2.80393 5.48113 2.33359C6.02506 1.86325 6.65632 1.50466 7.33885 1.27831C8.02138 1.05196 8.74182 0.962285 9.45901 1.0144C10.1762 1.06651 10.8761 1.25939 11.5188 1.58203L29.3238 10.4939Z" stroke="#CC6F79" stroke-width="2" stroke-linecap="round" stroke-linejoin="round"/>
</svg>
