<svg width="38" height="35" viewBox="0 0 38 35" fill="none" xmlns="http://www.w3.org/2000/svg">
<path d="M22.4041 21.9385L20.7428 27.2405C20.1203 29.2251 17.0378 29.2251 16.4153 27.2405L14.7559 21.9385C14.6509 21.6031 14.4539 21.2977 14.1836 21.051C13.9132 20.8043 13.5785 20.6246 13.2109 20.5287L7.40031 19.0146C5.22531 18.4466 5.22531 15.6339 7.40031 15.0659L13.2109 13.5518C13.5785 13.4559 13.9132 13.2762 14.1836 13.0295C14.4539 12.7829 14.6509 12.4774 14.7559 12.142L16.4153 6.84006C17.0378 4.85545 20.1203 4.85545 20.7428 6.84006L22.4022 12.142C22.5072 12.4774 22.7042 12.7829 22.9746 13.0295C23.2449 13.2762 23.5796 13.4559 23.9472 13.5518L29.7578 15.0659C31.9328 15.6339 31.9328 18.4466 29.7578 19.0146L23.9472 20.5287C23.5796 20.6246 23.2449 20.8043 22.9746 21.051C22.7042 21.2977 22.5072 21.6031 22.4022 21.9385M32.7728 30.2413L32.0678 32.8213C31.9741 33.1669 31.4359 33.1669 31.3403 32.8213L30.6334 30.2413C30.6169 30.1814 30.5829 30.1268 30.535 30.0831C30.4871 30.0394 30.4272 30.0084 30.3616 29.9933L27.5341 29.3483C27.1553 29.2627 27.1553 28.7717 27.5341 28.6844L30.3616 28.0394C30.4272 28.0243 30.4871 27.9933 30.535 27.9496C30.5829 27.9059 30.6169 27.8513 30.6334 27.7914L31.3403 25.2114C31.4341 24.8658 31.9722 24.8658 32.0678 25.2114L32.7747 27.7914C32.7912 27.8513 32.8253 27.9059 32.8731 27.9496C32.921 27.9933 32.9809 28.0243 33.0466 28.0394L35.8741 28.6844C36.2528 28.77 36.2528 29.261 35.8741 29.3483L33.0466 29.9933C32.9809 30.0084 32.921 30.0394 32.8731 30.0831C32.8253 30.1268 32.7894 30.1814 32.7728 30.2413ZM6.52281 6.28916L5.81781 8.86915C5.72406 9.21474 5.18406 9.21474 5.09031 8.86915L4.38344 6.28916C4.36688 6.22926 4.33286 6.17458 4.285 6.1309C4.23713 6.08723 4.1772 6.05619 4.11156 6.04108L1.28406 5.39608C0.905312 5.31054 0.905312 4.81781 1.28406 4.73226L4.11156 4.08726C4.1772 4.07216 4.23713 4.04112 4.285 3.99744C4.33286 3.95376 4.36688 3.89908 4.38344 3.83919L5.09031 1.2592C5.18406 0.913601 5.72406 0.913601 5.81781 1.2592L6.52469 3.83919C6.54125 3.89908 6.57526 3.95376 6.62313 3.99744C6.671 4.04112 6.73093 4.07216 6.79656 4.08726L9.62406 4.73226C10.0028 4.81781 10.0028 5.31054 9.62406 5.39608L6.79656 6.04108C6.73093 6.05619 6.671 6.08723 6.62313 6.1309C6.57526 6.17458 6.53937 6.22926 6.52281 6.28916Z" stroke="#CC6F79" stroke-width="2" stroke-miterlimit="10" stroke-linecap="round" stroke-linejoin="round"/>
</svg>
